<?xml version="1.0" encoding="UTF-8" standalone="no"?>
<!DOCTYPE svg PUBLIC "-//W3C//DTD SVG 1.1//EN"
 "http://www.w3.org/Graphics/SVG/1.1/DTD/svg11.dtd">
<!-- Generated by graphviz version 2.40.1 (20161225.0304)
 -->
<!-- Title: dependencies Pages: 1 -->
<svg width="1918pt" height="284pt"
 viewBox="0.00 0.00 1918.00 284.00" xmlns="http://www.w3.org/2000/svg" xmlns:xlink="http://www.w3.org/1999/xlink">
<g id="graph0" class="graph" transform="scale(1 1) rotate(0) translate(4 280)">
<title>dependencies</title>
<polygon fill="#ffffff" stroke="transparent" points="-4,4 -4,-280 1914,-280 1914,4 -4,4"/>
<text text-anchor="start" x="934.0091" y="-42.4" font-family="sans-serif" font-weight="bold" font-size="14.00" fill="#000000">Legend</text>
<polygon fill="#ffffb3" stroke="transparent" points="721,-10 721,-30 741,-30 741,-10 721,-10"/>
<text text-anchor="start" x="744.629" y="-15.4" font-family="sans-serif" font-size="14.00" fill="#000000"> &#160;Declarations</text>
<polygon fill="#8dd3c7" stroke="transparent" points="834,-10 834,-30 854,-30 854,-10 834,-10"/>
<text text-anchor="start" x="857.7251" y="-15.4" font-family="sans-serif" font-size="14.00" fill="#000000"> &#160;Module</text>
<polygon fill="#80b1d3" stroke="transparent" points="920,-10 920,-30 940,-30 940,-10 920,-10"/>
<text text-anchor="start" x="943.7812" y="-15.4" font-family="sans-serif" font-size="14.00" fill="#000000"> &#160;Bootstrap</text>
<polygon fill="#fdb462" stroke="transparent" points="1017,-10 1017,-30 1037,-30 1037,-10 1017,-10"/>
<text text-anchor="start" x="1040.6732" y="-15.4" font-family="sans-serif" font-size="14.00" fill="#000000"> &#160;Providers</text>
<polygon fill="#fb8072" stroke="transparent" points="1113,-10 1113,-30 1133,-30 1133,-10 1113,-10"/>
<text text-anchor="start" x="1136.7258" y="-15.4" font-family="sans-serif" font-size="14.00" fill="#000000"> &#160;Exports</text>
<g id="clust1" class="cluster">
<title>cluster_AppModule</title>
<polygon fill="none" stroke="#000000" stroke-dasharray="1,5" points="8,-70 8,-268 1902,-268 1902,-70 8,-70"/>
</g>
<g id="clust2" class="cluster">
<title>cluster_AppModule_declarations</title>
<polygon fill="none" stroke="#000000" points="168,-78 168,-130 1894,-130 1894,-78 168,-78"/>
</g>
<g id="clust15" class="cluster">
<title>cluster_AppModule_imports</title>
<polygon fill="none" stroke="#000000" points="16,-78 16,-130 160,-130 160,-78 16,-78"/>
</g>
<g id="clust17" class="cluster">
<title>cluster_AppModule_bootstrap</title>
<polygon fill="none" stroke="#000000" points="1009,-208 1009,-260 1133,-260 1133,-208 1009,-208"/>
</g>
<!-- AboutComponent -->
<g id="node1" class="node">
<title>AboutComponent</title>
<polygon fill="#ffffb3" stroke="#000000" points="1886.3301,-122 1769.6699,-122 1769.6699,-86 1886.3301,-86 1886.3301,-122"/>
<text text-anchor="middle" x="1828" y="-99.8" font-family="Times,serif" font-size="14.00" fill="#000000">AboutComponent</text>
</g>
<!-- AppModule -->
<g id="node13" class="node">
<title>AppModule</title>
<polygon fill="#8dd3c7" stroke="#000000" points="1112.6571,-187 1109.6571,-191 1088.6571,-191 1085.6571,-187 1029.3429,-187 1029.3429,-151 1112.6571,-151 1112.6571,-187"/>
<text text-anchor="middle" x="1071" y="-164.8" font-family="Times,serif" font-size="14.00" fill="#000000">AppModule</text>
</g>
<!-- AboutComponent&#45;&gt;AppModule -->
<g id="edge1" class="edge">
<title>AboutComponent&#45;&gt;AppModule</title>
<path fill="none" stroke="#000000" d="M1828,-122.0908C1828,-145.1328 1828,-182 1828,-182 1828,-182 1122.7779,-182 1122.7779,-182"/>
<polygon fill="#000000" stroke="#000000" points="1122.7779,-178.5001 1112.7779,-182 1122.7779,-185.5001 1122.7779,-178.5001"/>
</g>
<!-- AddHouseComponent -->
<g id="node2" class="node">
<title>AddHouseComponent</title>
<polygon fill="#ffffb3" stroke="#000000" points="1751.7049,-122 1610.2951,-122 1610.2951,-86 1751.7049,-86 1751.7049,-122"/>
<text text-anchor="middle" x="1681" y="-99.8" font-family="Times,serif" font-size="14.00" fill="#000000">AddHouseComponent</text>
</g>
<!-- AddHouseComponent&#45;&gt;AppModule -->
<g id="edge2" class="edge">
<title>AddHouseComponent&#45;&gt;AppModule</title>
<path fill="none" stroke="#000000" d="M1681,-122.0449C1681,-143.6623 1681,-177 1681,-177 1681,-177 1122.9278,-177 1122.9278,-177"/>
<polygon fill="#000000" stroke="#000000" points="1122.9278,-173.5001 1112.9278,-177 1122.9277,-180.5001 1122.9278,-173.5001"/>
</g>
<!-- AppComponent -->
<g id="node3" class="node">
<title>AppComponent</title>
<polygon fill="#ffffb3" stroke="#000000" points="1592.9399,-122 1487.0601,-122 1487.0601,-86 1592.9399,-86 1592.9399,-122"/>
<text text-anchor="middle" x="1540" y="-99.8" font-family="Times,serif" font-size="14.00" fill="#000000">AppComponent</text>
</g>
<!-- AppComponent&#45;&gt;AppModule -->
<g id="edge3" class="edge">
<title>AppComponent&#45;&gt;AppModule</title>
<path fill="none" stroke="#000000" d="M1540,-122.2228C1540,-142.3652 1540,-172 1540,-172 1540,-172 1123.0334,-172 1123.0334,-172"/>
<polygon fill="#000000" stroke="#000000" points="1123.0334,-168.5001 1113.0334,-172 1123.0333,-175.5001 1123.0334,-168.5001"/>
</g>
<!-- BodyComponent -->
<g id="node4" class="node">
<title>BodyComponent</title>
<polygon fill="#ffffb3" stroke="#000000" points="1468.6695,-122 1357.3305,-122 1357.3305,-86 1468.6695,-86 1468.6695,-122"/>
<text text-anchor="middle" x="1413" y="-99.8" font-family="Times,serif" font-size="14.00" fill="#000000">BodyComponent</text>
</g>
<!-- BodyComponent&#45;&gt;AppModule -->
<g id="edge4" class="edge">
<title>BodyComponent&#45;&gt;AppModule</title>
<path fill="none" stroke="#000000" d="M1413,-122.2222C1413,-140.8285 1413,-167 1413,-167 1413,-167 1122.9359,-167 1122.9359,-167"/>
<polygon fill="#000000" stroke="#000000" points="1122.9359,-163.5001 1112.9359,-167 1122.9359,-170.5001 1122.9359,-163.5001"/>
</g>
<!-- ContactComponent -->
<g id="node5" class="node">
<title>ContactComponent</title>
<polygon fill="#ffffb3" stroke="#000000" points="1339.3795,-122 1214.6205,-122 1214.6205,-86 1339.3795,-86 1339.3795,-122"/>
<text text-anchor="middle" x="1277" y="-99.8" font-family="Times,serif" font-size="14.00" fill="#000000">ContactComponent</text>
</g>
<!-- ContactComponent&#45;&gt;AppModule -->
<g id="edge5" class="edge">
<title>ContactComponent&#45;&gt;AppModule</title>
<path fill="none" stroke="#000000" d="M1297.8132,-122.0336C1297.8132,-139.0597 1297.8132,-162 1297.8132,-162 1297.8132,-162 1122.8654,-162 1122.8654,-162"/>
<polygon fill="#000000" stroke="#000000" points="1122.8654,-158.5001 1112.8654,-162 1122.8653,-165.5001 1122.8654,-158.5001"/>
</g>
<!-- ContactComponent&#45;&gt;AppModule -->
<g id="edge6" class="edge">
<title>ContactComponent&#45;&gt;AppModule</title>
<path fill="none" stroke="#000000" d="M1256.1868,-122.2396C1256.1868,-137.5706 1256.1868,-157 1256.1868,-157 1256.1868,-157 1123.0217,-157 1123.0217,-157"/>
<polygon fill="#000000" stroke="#000000" points="1123.0218,-153.5001 1113.0217,-157 1123.0217,-160.5001 1123.0218,-153.5001"/>
</g>
<!-- FooterComponent -->
<g id="node6" class="node">
<title>FooterComponent</title>
<polygon fill="#ffffb3" stroke="#000000" points="1196.8809,-122 1079.1191,-122 1079.1191,-86 1196.8809,-86 1196.8809,-122"/>
<text text-anchor="middle" x="1138" y="-99.8" font-family="Times,serif" font-size="14.00" fill="#000000">FooterComponent</text>
</g>
<!-- FooterComponent&#45;&gt;AppModule -->
<g id="edge7" class="edge">
<title>FooterComponent&#45;&gt;AppModule</title>
<path fill="none" stroke="#000000" d="M1095.9439,-122.1061C1095.9439,-122.1061 1095.9439,-140.991 1095.9439,-140.991"/>
<polygon fill="#000000" stroke="#000000" points="1092.444,-140.9909 1095.9439,-150.991 1099.444,-140.991 1092.444,-140.9909"/>
</g>
<!-- LoginComponent -->
<g id="node7" class="node">
<title>LoginComponent</title>
<polygon fill="#ffffb3" stroke="#000000" points="1061.2758,-122 946.7242,-122 946.7242,-86 1061.2758,-86 1061.2758,-122"/>
<text text-anchor="middle" x="1004" y="-99.8" font-family="Times,serif" font-size="14.00" fill="#000000">LoginComponent</text>
</g>
<!-- LoginComponent&#45;&gt;AppModule -->
<g id="edge8" class="edge">
<title>LoginComponent&#45;&gt;AppModule</title>
<path fill="none" stroke="#000000" d="M1045.2798,-122.1061C1045.2798,-122.1061 1045.2798,-140.991 1045.2798,-140.991"/>
<polygon fill="#000000" stroke="#000000" points="1041.7799,-140.9909 1045.2798,-150.991 1048.7799,-140.991 1041.7799,-140.9909"/>
</g>
<!-- MyHousesComponent -->
<g id="node8" class="node">
<title>MyHousesComponent</title>
<polygon fill="#ffffb3" stroke="#000000" points="928.9874,-122 787.0126,-122 787.0126,-86 928.9874,-86 928.9874,-122"/>
<text text-anchor="middle" x="858" y="-99.8" font-family="Times,serif" font-size="14.00" fill="#000000">MyHousesComponent</text>
</g>
<!-- MyHousesComponent&#45;&gt;AppModule -->
<g id="edge9" class="edge">
<title>MyHousesComponent&#45;&gt;AppModule</title>
<path fill="none" stroke="#000000" d="M858,-122.2396C858,-137.5706 858,-157 858,-157 858,-157 1019.1722,-157 1019.1722,-157"/>
<polygon fill="#000000" stroke="#000000" points="1019.1722,-160.5001 1029.1722,-157 1019.1722,-153.5001 1019.1722,-160.5001"/>
</g>
<!-- NavbarComponent -->
<g id="node9" class="node">
<title>NavbarComponent</title>
<polygon fill="#ffffb3" stroke="#000000" points="769.0297,-122 646.9703,-122 646.9703,-86 769.0297,-86 769.0297,-122"/>
<text text-anchor="middle" x="708" y="-99.8" font-family="Times,serif" font-size="14.00" fill="#000000">NavbarComponent</text>
</g>
<!-- NavbarComponent&#45;&gt;AppModule -->
<g id="edge10" class="edge">
<title>NavbarComponent&#45;&gt;AppModule</title>
<path fill="none" stroke="#000000" d="M708,-122.0336C708,-139.0597 708,-162 708,-162 708,-162 1019.0047,-162 1019.0047,-162"/>
<polygon fill="#000000" stroke="#000000" points="1019.0047,-165.5001 1029.0047,-162 1019.0046,-158.5001 1019.0047,-165.5001"/>
</g>
<!-- RegisterComponent -->
<g id="node10" class="node">
<title>RegisterComponent</title>
<polygon fill="#ffffb3" stroke="#000000" points="628.9846,-122 501.0154,-122 501.0154,-86 628.9846,-86 628.9846,-122"/>
<text text-anchor="middle" x="565" y="-99.8" font-family="Times,serif" font-size="14.00" fill="#000000">RegisterComponent</text>
</g>
<!-- RegisterComponent&#45;&gt;AppModule -->
<g id="edge11" class="edge">
<title>RegisterComponent&#45;&gt;AppModule</title>
<path fill="none" stroke="#000000" d="M565,-122.2222C565,-140.8285 565,-167 565,-167 565,-167 1019.1614,-167 1019.1614,-167"/>
<polygon fill="#000000" stroke="#000000" points="1019.1614,-170.5001 1029.1614,-167 1019.1614,-163.5001 1019.1614,-170.5001"/>
</g>
<!-- ThankYouComponent -->
<g id="node11" class="node">
<title>ThankYouComponent</title>
<polygon fill="#ffffb3" stroke="#000000" points="482.7064,-122 341.2936,-122 341.2936,-86 482.7064,-86 482.7064,-122"/>
<text text-anchor="middle" x="412" y="-99.8" font-family="Times,serif" font-size="14.00" fill="#000000">ThankYouComponent</text>
</g>
<!-- ThankYouComponent&#45;&gt;AppModule -->
<g id="edge12" class="edge">
<title>ThankYouComponent&#45;&gt;AppModule</title>
<path fill="none" stroke="#000000" d="M412,-122.2228C412,-142.3652 412,-172 412,-172 412,-172 1019.2767,-172 1019.2767,-172"/>
<polygon fill="#000000" stroke="#000000" points="1019.2767,-175.5001 1029.2767,-172 1019.2766,-168.5001 1019.2767,-175.5001"/>
</g>
<!-- ViewHouseComponent -->
<g id="node12" class="node">
<title>ViewHouseComponent</title>
<polygon fill="#ffffb3" stroke="#000000" points="323.9172,-122 176.0828,-122 176.0828,-86 323.9172,-86 323.9172,-122"/>
<text text-anchor="middle" x="250" y="-99.8" font-family="Times,serif" font-size="14.00" fill="#000000">ViewHouseComponent</text>
</g>
<!-- ViewHouseComponent&#45;&gt;AppModule -->
<g id="edge13" class="edge">
<title>ViewHouseComponent&#45;&gt;AppModule</title>
<path fill="none" stroke="#000000" d="M250,-122.0449C250,-143.6623 250,-177 250,-177 250,-177 1019.1578,-177 1019.1578,-177"/>
<polygon fill="#000000" stroke="#000000" points="1019.1578,-180.5001 1029.1578,-177 1019.1577,-173.5001 1019.1578,-180.5001"/>
</g>
<!-- AppComponent  -->
<g id="node15" class="node">
<title>AppComponent </title>
<polygon fill="#80b1d3" stroke="#000000" points="1125.439,-252 1016.561,-252 1016.561,-216 1125.439,-216 1125.439,-252"/>
<text text-anchor="middle" x="1071" y="-229.8" font-family="Times,serif" font-size="14.00" fill="#000000">AppComponent </text>
</g>
<!-- AppModule&#45;&gt;AppComponent  -->
<g id="edge15" class="edge">
<title>AppModule&#45;&gt;AppComponent </title>
<path fill="none" stroke="#000000" stroke-dasharray="1,5" d="M1071,-187.1061C1071,-187.1061 1071,-205.991 1071,-205.991"/>
<polygon fill="#000000" stroke="#000000" points="1067.5001,-205.9909 1071,-215.991 1074.5001,-205.991 1067.5001,-205.9909"/>
</g>
<!-- AppRoutingModule -->
<g id="node14" class="node">
<title>AppRoutingModule</title>
<polygon fill="#8dd3c7" stroke="#000000" points="152.2744,-122 149.2744,-126 128.2744,-126 125.2744,-122 23.7256,-122 23.7256,-86 152.2744,-86 152.2744,-122"/>
<text text-anchor="middle" x="88" y="-99.8" font-family="Times,serif" font-size="14.00" fill="#000000">AppRoutingModule</text>
</g>
<!-- AppRoutingModule&#45;&gt;AppModule -->
<g id="edge14" class="edge">
<title>AppRoutingModule&#45;&gt;AppModule</title>
<path fill="none" stroke="#000000" d="M88,-122.0908C88,-145.1328 88,-182 88,-182 88,-182 1019.0762,-182 1019.0762,-182"/>
<polygon fill="#000000" stroke="#000000" points="1019.0762,-185.5001 1029.0762,-182 1019.0761,-178.5001 1019.0762,-185.5001"/>
</g>
</g>
</svg>
